<svg xmlns="http://www.w3.org/2000/svg" width="912" height="364" viewBox="0 0 912 364" role="img" aria-label="カレンダー 2026年8月">
<style>
  text { font-family: -apple-system, "Segoe UI", "Hiragino Sans", "Noto Sans JP", Meiryo, sans-serif; font-size: 12px; fill: #1f2328; }
  .title { font-size: 15px; font-weight: 600; }
  .cell { fill: none; stroke: #808080; stroke-opacity: 0.4; }
  .out { fill: #808080; fill-opacity: 0.1; stroke: #808080; stroke-opacity: 0.4; }
  .sat { fill: #0969da; }
  .sun { fill: #cf222e; }
  .bar { fill: #1f6feb; }
  .bar-text { font-size: 11px; fill: #ffffff; }
  @media (prefers-color-scheme: dark) {
    text { fill: #e6edf3; }
    .sat { fill: #4493f8; }
    .sun { fill: #f85149; }
  }
</style>
<text x="8" y="28" class="title">2026年8月</text>
<text x="72" y="53" text-anchor="middle">月</text>
<text x="200" y="53" text-anchor="middle">火</text>
<text x="328" y="53" text-anchor="middle">水</text>
<text x="456" y="53" text-anchor="middle">木</text>
<text x="584" y="53" text-anchor="middle">金</text>
<text x="712" y="53" text-anchor="middle" class="sat">土</text>
<text x="840" y="53" text-anchor="middle" class="sun">日</text>
<rect x="8" y="60" width="128" height="46" class="out"/>
<rect x="136" y="60" width="128" height="46" class="out"/>
<rect x="264" y="60" width="128" height="46" class="out"/>
<rect x="392" y="60" width="128" height="46" class="out"/>
<rect x="520" y="60" width="128" height="46" class="out"/>
<rect x="648" y="60" width="128" height="46" class="cell"/>
<text x="654" y="76" class="sat">1</text>
<rect x="776" y="60" width="128" height="46" class="cell"/>
<text x="782" y="76" class="sun">2</text>
<rect x="8" y="106" width="128" height="46" class="cell"/>
<text x="14" y="122">3</text>
<rect x="136" y="106" width="128" height="46" class="cell"/>
<text x="142" y="122">4</text>
<rect x="264" y="106" width="128" height="46" class="cell"/>
<text x="270" y="122">5</text>
<rect x="392" y="106" width="128" height="46" class="cell"/>
<text x="398" y="122">6</text>
<rect x="520" y="106" width="128" height="46" class="cell"/>
<text x="526" y="122">7</text>
<rect x="648" y="106" width="128" height="46" class="cell"/>
<text x="654" y="122" class="sat">8</text>
<rect x="776" y="106" width="128" height="46" class="cell"/>
<text x="782" y="122" class="sun">9</text>
<rect x="8" y="152" width="128" height="46" class="cell"/>
<text x="14" y="168">10</text>
<rect x="136" y="152" width="128" height="46" class="cell"/>
<text x="142" y="168">11</text>
<rect x="264" y="152" width="128" height="46" class="cell"/>
<text x="270" y="168">12</text>
<rect x="392" y="152" width="128" height="46" class="cell"/>
<text x="398" y="168">13</text>
<rect x="520" y="152" width="128" height="46" class="cell"/>
<text x="526" y="168">14</text>
<rect x="648" y="152" width="128" height="46" class="cell"/>
<text x="654" y="168" class="sat">15</text>
<rect x="776" y="152" width="128" height="46" class="cell"/>
<text x="782" y="168" class="sun">16</text>
<rect x="8" y="198" width="128" height="46" class="cell"/>
<text x="14" y="214">17</text>
<rect x="136" y="198" width="128" height="46" class="cell"/>
<text x="142" y="214">18</text>
<rect x="264" y="198" width="128" height="46" class="cell"/>
<text x="270" y="214">19</text>
<rect x="392" y="198" width="128" height="46" class="cell"/>
<text x="398" y="214">20</text>
<rect x="520" y="198" width="128" height="46" class="cell"/>
<text x="526" y="214">21</text>
<rect x="648" y="198" width="128" height="46" class="cell"/>
<text x="654" y="214" class="sat">22</text>
<rect x="776" y="198" width="128" height="46" class="cell"/>
<text x="782" y="214" class="sun">23</text>
<rect x="8" y="244" width="128" height="66" class="cell"/>
<text x="14" y="260">24</text>
<rect x="136" y="244" width="128" height="66" class="cell"/>
<text x="142" y="260">25</text>
<rect x="264" y="244" width="128" height="66" class="cell"/>
<text x="270" y="260">26</text>
<rect x="392" y="244" width="128" height="66" class="cell"/>
<text x="398" y="260">27</text>
<rect x="520" y="244" width="128" height="66" class="cell"/>
<text x="526" y="260">28</text>
<rect x="648" y="244" width="128" height="66" class="cell"/>
<text x="654" y="260" class="sat">29</text>
<rect x="776" y="244" width="128" height="66" class="cell"/>
<text x="782" y="260" class="sun">30</text>
<svg x="522" y="266" width="124" height="16"><rect width="124" height="16" rx="4" class="bar"/><text x="6" y="12" class="bar-text">映画まどマギ 公開日</text></svg>
<svg x="650" y="266" width="124" height="16"><rect width="124" height="16" rx="4" class="bar"/><text x="6" y="12" class="bar-text">まどマギ見に行く</text></svg>
<svg x="650" y="286" width="124" height="16"><rect width="124" height="16" rx="4" class="bar"/><text x="6" y="12" class="bar-text">とくぞう　誕生日</text></svg>
<rect x="8" y="310" width="128" height="46" class="cell"/>
<text x="14" y="326">31</text>
<rect x="136" y="310" width="128" height="46" class="out"/>
<rect x="264" y="310" width="128" height="46" class="out"/>
<rect x="392" y="310" width="128" height="46" class="out"/>
<rect x="520" y="310" width="128" height="46" class="out"/>
<rect x="648" y="310" width="128" height="46" class="out"/>
<rect x="776" y="310" width="128" height="46" class="out"/>
</svg>
